<svg xmlns="http://www.w3.org/2000/svg" width="50" height="60" viewBox="0 0 50 60">
  <!-- 제트팩 불꽃 -->
  <ellipse cx="18" cy="57" rx="4" ry="5" fill="#FF6600" opacity="0.9"/>
  <ellipse cx="32" cy="57" rx="4" ry="5" fill="#FF6600" opacity="0.9"/>
  <ellipse cx="18" cy="56" rx="2.5" ry="3" fill="#FFDD00"/>
  <ellipse cx="32" cy="56" rx="2.5" ry="3" fill="#FFDD00"/>

  <!-- 다리 -->
  <rect x="14" y="44" width="8" height="10" rx="3" fill="#3A6BC4"/>
  <rect x="28" y="44" width="8" height="10" rx="3" fill="#3A6BC4"/>
  <!-- 발 -->
  <rect x="12" y="51" width="11" height="5" rx="2" fill="#2A50A0"/>
  <rect x="27" y="51" width="11" height="5" rx="2" fill="#2A50A0"/>

  <!-- 몸통 -->
  <rect x="10" y="26" width="30" height="22" rx="6" fill="#4A80E0"/>
  <!-- 가슴 패널 -->
  <rect x="16" y="30" width="18" height="12" rx="3" fill="#2A5ABF"/>
  <!-- 패널 버튼들 -->
  <circle cx="20" cy="34" r="2.5" fill="#FF4444"/>
  <circle cx="25" cy="34" r="2.5" fill="#44FF88"/>
  <circle cx="30" cy="34" r="2.5" fill="#FFDD00"/>
  <!-- 패널 선 -->
  <rect x="17" y="39" width="16" height="2" rx="1" fill="#1A3A8F"/>

  <!-- 팔 왼쪽 -->
  <rect x="2" y="28" width="9" height="14" rx="4" fill="#4A80E0"/>
  <circle cx="6" cy="43" r="4" fill="#3A6BC4"/>
  <!-- 팔 오른쪽 -->
  <rect x="39" y="28" width="9" height="14" rx="4" fill="#4A80E0"/>
  <circle cx="44" cy="43" r="4" fill="#3A6BC4"/>

  <!-- 제트팩 -->
  <rect x="12" y="27" width="7" height="16" rx="3" fill="#2A5ABF"/>
  <rect x="31" y="27" width="7" height="16" rx="3" fill="#2A5ABF"/>

  <!-- 헬멧 -->
  <circle cx="25" cy="18" r="14" fill="#4A80E0"/>
  <!-- 바이저 -->
  <ellipse cx="25" cy="18" rx="10" ry="9" fill="#88CCFF" opacity="0.85"/>
  <!-- 바이저 반사 -->
  <ellipse cx="21" cy="14" rx="4" ry="3" fill="white" opacity="0.35"/>
  <!-- 눈 -->
  <circle cx="21" cy="18" r="2.5" fill="#1A2A6F"/>
  <circle cx="29" cy="18" r="2.5" fill="#1A2A6F"/>
  <!-- 눈 하이라이트 -->
  <circle cx="22" cy="17" r="0.9" fill="white"/>
  <circle cx="30" cy="17" r="0.9" fill="white"/>
  <!-- 입 -->
  <path d="M 21 22 Q 25 25 29 22" stroke="#1A2A6F" stroke-width="1.5" fill="none" stroke-linecap="round"/>
  <!-- 헬멧 테두리 -->
  <circle cx="25" cy="18" r="14" fill="none" stroke="#2A5ABF" stroke-width="2"/>
  <!-- 안테나 -->
  <line x1="25" y1="4" x2="25" y2="10" stroke="#4A80E0" stroke-width="2"/>
  <circle cx="25" cy="3" r="2.5" fill="#FF4444"/>
</svg>
